# xmcd CD database file
#
# Track frame offsets:
#	150
#	31934
#	78277
#	93936
#	122571
#	137145
#	163815
#	175492
#	195573
#	204973
#	219452
#	230316
#	254435
#	275815
#	305316
#
# Disc length: 4369 seconds
#
# Revision: 0
# Processed by: cddbd v1.5.1PL2 Copyright (c) Steve Scherf et al.
# Submitted via: CDex 1.51
#
DISCID=cd110f0f
DTITLE=Ray Brown - Summerwind
DYEAR=1980
DGENRE=Jazz
TTITLE0=Blues for Groundhog
TTITLE1=Medley: Sophisticated Lady/Rocks in My Bed
TTITLE2=Put Your Little Foot Right Out
TTITLE3=Consider
TTITLE4=Swamp Fire
TTITLE5=Summerwind
TTITLE6=Griff and Me
TTITLE7=Delaunay's Dilemma
TTITLE8=Thanks for the Memory
TTITLE9=Hard Times
TTITLE10=Woogie Boogie
TTITLE11=Street Life
TTITLE12=Put Your Little Foot Right Out [alternate take]
TTITLE13=Consider [alternate take]
TTITLE14=Street Life [alternate take]
EXTD=YEAR: 1980
EXTT0=
EXTT1=
EXTT2=
EXTT3=
EXTT4=
EXTT5=
EXTT6=
EXTT7=
EXTT8=
EXTT9=
EXTT10=
EXTT11=
EXTT12=
EXTT13=
EXTT14=
PLAYORDER=
